<svg width="16" height="16" viewBox="0 0 16 16" fill="none" xmlns="http://www.w3.org/2000/svg">
<g clip-path="url(#clip0_76_9033)">
<path d="M6.41442 4.69728C7.24226 4.42047 8.24308 4.5082 9.08108 4.99285C10.7439 5.95568 11.2008 7.69355 10.6411 9.48286C10.1868 10.9373 8.67795 12.4137 7.09079 12.5259C6.14124 12.5932 5.1733 11.8811 5.12554 10.8869C5.10798 10.516 5.23913 10.205 5.39907 9.90086L5.50822 9.69896C5.58505 9.55957 5.66281 9.4189 5.72888 9.27225C5.86289 8.97482 5.75046 8.72467 5.58067 8.49183L5.49229 8.37715L5.28357 8.12349L5.18617 7.99475C4.95824 7.68151 4.74236 7.27164 4.79188 6.68434C4.87752 5.65648 5.57393 4.97886 6.41442 4.69728ZM5.60151 2.44821C5.85322 2.53176 6.06144 2.71187 6.18035 2.94894C6.29926 3.186 6.31913 3.46059 6.23559 3.71231C6.15204 3.96402 5.97193 4.17224 5.73486 4.29115C5.4978 4.41006 5.22321 4.42993 4.97149 4.34639C4.71978 4.26284 4.51156 4.08273 4.39265 3.84566C4.27374 3.6086 4.25387 3.33401 4.33741 3.08229C4.42096 2.83058 4.60107 2.62236 4.83814 2.50345C5.0752 2.38454 5.34979 2.36467 5.60151 2.44821ZM11.8504 5.04905C11.9762 5.09082 12.0803 5.18088 12.1398 5.29941C12.1992 5.41794 12.2092 5.55524 12.1674 5.6811C12.1256 5.80695 12.0356 5.91106 11.917 5.97052C11.7985 6.02998 11.6612 6.03991 11.5354 5.99814C11.4095 5.95637 11.3054 5.86631 11.2459 5.74778C11.1865 5.62924 11.1765 5.49195 11.2183 5.36609C11.2601 5.24023 11.3501 5.13612 11.4687 5.07667C11.5872 5.01721 11.7245 5.00728 11.8504 5.04905ZM7.97321 2.44516C8.06669 2.47618 8.15314 2.52532 8.22763 2.58975C8.30212 2.65419 8.36319 2.73266 8.40735 2.8207C8.45151 2.90874 8.47789 3.00461 8.485 3.10285C8.49211 3.20108 8.4798 3.29975 8.44878 3.39323C8.41775 3.48671 8.36862 3.57316 8.30418 3.64765C8.23974 3.72214 8.16127 3.7832 8.07323 3.82736C7.98519 3.87152 7.88932 3.89791 7.79109 3.90502C7.69285 3.91213 7.59418 3.89982 7.5007 3.86879C7.31192 3.80613 7.15575 3.67105 7.06657 3.49325C6.97738 3.31545 6.96248 3.10951 7.02514 2.92072C7.0878 2.73193 7.22289 2.57577 7.40068 2.48659C7.57848 2.3974 7.78443 2.3825 7.97321 2.44516ZM10.3459 3.23267C10.4394 3.2637 10.5259 3.31283 10.6004 3.37727C10.6748 3.4417 10.7359 3.52018 10.7801 3.60822C10.8242 3.69625 10.8506 3.79213 10.8577 3.89036C10.8648 3.9886 10.8525 4.08727 10.8215 4.18075C10.7905 4.27422 10.7413 4.36067 10.6769 4.43516C10.6125 4.50965 10.534 4.57072 10.446 4.61488C10.3579 4.65904 10.262 4.68543 10.1638 4.69253C10.0656 4.69964 9.9669 4.68733 9.87343 4.65631C9.68464 4.59365 9.52848 4.45856 9.43929 4.28076C9.35011 4.10297 9.33521 3.89702 9.39786 3.70824C9.46052 3.51945 9.59561 3.36329 9.77341 3.2741C9.95121 3.18492 10.1572 3.17001 10.3459 3.23267Z" fill="#8B8B8B"/>
</g>
<defs>
<clipPath id="clip0_76_9033">
<rect width="12" height="12" fill="white" transform="translate(3.78027) rotate(18.3612)"/>
</clipPath>
</defs>
</svg>
