<svg width="31" height="31" viewBox="0 0 31 31" fill="none" xmlns="http://www.w3.org/2000/svg">
<g clip-path="url(#clip0_92_8732)">
<path d="M12.8288 9.39506C14.4845 8.84142 16.4862 9.01688 18.1622 9.98618C21.4879 11.9118 22.4015 15.3876 21.2822 18.9662C20.3737 21.8751 17.3559 24.8278 14.1816 25.0523C12.2825 25.1869 10.3466 23.7626 10.2511 21.7743C10.216 21.0324 10.4783 20.4104 10.7981 19.8022L11.0164 19.3984C11.1701 19.1196 11.3256 18.8383 11.4578 18.545C11.7258 17.9501 11.5009 17.4498 11.1613 16.9841L10.9846 16.7548L10.5671 16.2475L10.3723 15.99C9.91647 15.3635 9.48471 14.5438 9.58376 13.3692C9.75504 11.3135 11.1479 9.95821 12.8288 9.39506ZM11.203 4.89691C11.7064 5.064 12.1229 5.42423 12.3607 5.89836C12.5985 6.37249 12.6383 6.92167 12.4712 7.4251C12.3041 7.92853 11.9439 8.34496 11.4697 8.58279C10.9956 8.82062 10.4464 8.86036 9.94299 8.69327C9.43956 8.52618 9.02313 8.16595 8.7853 7.69182C8.54747 7.21769 8.50773 6.6685 8.67482 6.16508C8.84191 5.66165 9.20214 5.24521 9.67627 5.00739C10.1504 4.76956 10.6996 4.72982 11.203 4.89691ZM23.7007 10.0986C23.9524 10.1821 24.1606 10.3622 24.2796 10.5993C24.3985 10.8364 24.4183 11.111 24.3348 11.3627C24.2513 11.6144 24.0711 11.8226 23.8341 11.9415C23.597 12.0604 23.3224 12.0803 23.0707 11.9968C22.819 11.9132 22.6108 11.7331 22.4919 11.496C22.3729 11.259 22.3531 10.9844 22.4366 10.7327C22.5202 10.481 22.7003 10.2727 22.9373 10.1538C23.1744 10.0349 23.449 10.015 23.7007 10.0986ZM15.9464 4.8908C16.1334 4.95285 16.3063 5.05112 16.4553 5.17999C16.6042 5.30886 16.7264 5.46582 16.8147 5.64189C16.903 5.81796 16.9558 6.00971 16.97 6.20618C16.9842 6.40265 16.9596 6.59999 16.8976 6.78695C16.8355 6.9739 16.7372 7.1468 16.6084 7.29578C16.4795 7.44476 16.3225 7.56689 16.1465 7.65521C15.9704 7.74353 15.7786 7.79631 15.5822 7.81053C15.3857 7.82474 15.1884 7.80012 15.0014 7.73807C14.6238 7.61275 14.3115 7.34258 14.1331 6.98698C13.9548 6.63139 13.925 6.2195 14.0503 5.84193C14.1756 5.46436 14.4458 5.15203 14.8014 4.97366C15.157 4.79529 15.5689 4.76549 15.9464 4.8908ZM20.6919 6.46584C20.8788 6.52789 21.0517 6.62615 21.2007 6.75502C21.3497 6.8839 21.4718 7.04085 21.5601 7.21692C21.6485 7.393 21.7012 7.58474 21.7155 7.78121C21.7297 7.97768 21.705 8.17502 21.643 8.36198C21.5809 8.54893 21.4827 8.72184 21.3538 8.87081C21.2249 9.01979 21.068 9.14193 20.8919 9.23025C20.7158 9.31857 20.5241 9.37134 20.3276 9.38556C20.1312 9.39977 19.9338 9.37515 19.7469 9.3131C19.3693 9.18779 19.057 8.91761 18.8786 8.56202C18.7002 8.20642 18.6704 7.79453 18.7957 7.41696C18.921 7.03939 19.1912 6.72706 19.5468 6.54869C19.9024 6.37032 20.3143 6.34052 20.6919 6.46584Z" fill="#FFFEFE"/>
</g>
<defs>
<clipPath id="clip0_92_8732">
<rect width="24" height="24" fill="white" transform="translate(7.56055) rotate(18.3612)"/>
</clipPath>
</defs>
</svg>
