<svg width="60" height="60" viewBox="0 0 60 60" fill="none" xmlns="http://www.w3.org/2000/svg">
<path d="M9.375 5.62501C7.88316 5.62501 6.45242 6.21764 5.39752 7.27253C4.34263 8.32743 3.75 9.75817 3.75 11.25V22.5C3.75017 26.0841 4.89096 29.5751 7.00722 32.4677C9.12348 35.3603 12.1054 37.5043 15.5212 38.5894C15.1737 36.9998 14.9989 35.3772 15 33.75C15 29.6625 16.0912 25.8281 17.9962 22.5225L13.6744 18.2006C13.3328 17.847 13.1438 17.3734 13.1481 16.8818C13.1524 16.3901 13.3496 15.9199 13.6972 15.5722C14.0449 15.2246 14.5151 15.0274 15.0067 15.0231C15.4984 15.0188 15.972 15.2078 16.3256 15.5494L20.1731 19.3969C23.5586 15.305 28.2833 12.5438 33.51 11.6025C31.9275 9.72754 29.9544 8.22108 27.7287 7.18855C25.503 6.15603 23.0785 5.6224 20.625 5.62501H9.375ZM35.7844 15.0769C33.2665 15.3064 30.8213 16.0437 28.5961 17.244C26.371 18.4444 24.412 20.0831 22.8375 22.0613C20.1851 25.3791 18.7432 29.5022 18.75 33.75C18.7459 38.076 20.2414 42.2696 22.9819 45.6169L17.4244 51.1744C17.2453 51.3473 17.1025 51.5542 17.0042 51.783C16.9059 52.0118 16.8542 52.2578 16.852 52.5068C16.8499 52.7557 16.8973 53.0026 16.9916 53.233C17.0859 53.4635 17.2251 53.6728 17.4011 53.8489C17.5772 54.0249 17.7865 54.1642 18.017 54.2584C18.2474 54.3527 18.4943 54.4001 18.7433 54.398C18.9922 54.3958 19.2383 54.3441 19.467 54.2458C19.6958 54.1476 19.9027 54.0047 20.0756 53.8256L25.6331 48.2681C28.979 51.011 33.1735 52.5069 37.5 52.5C47.8556 52.5 56.25 44.1056 56.25 33.75V20.625C56.25 19.1332 55.6574 17.7024 54.6025 16.6475C53.5476 15.5926 52.1168 15 50.625 15H37.5C36.9225 15 36.3487 15.0263 35.7844 15.0769ZM40.7006 30.5494C41.0521 30.901 41.2496 31.3778 41.2496 31.875C41.2496 32.3722 41.0521 32.849 40.7006 33.2006L28.3013 45.6C27.3107 44.8299 26.4201 43.9393 25.65 42.9488L38.0494 30.5494C38.401 30.1979 38.8778 30.0004 39.375 30.0004C39.8722 30.0004 40.349 30.1979 40.7006 30.5494Z" fill="#FFFEFE"/>
</svg>
