<svg width="292" height="76" viewBox="0 0 292 76" fill="none" xmlns="http://www.w3.org/2000/svg">
<path d="M241.375 5.62501C239.883 5.62501 238.452 6.21764 237.398 7.27253C236.343 8.32743 235.75 9.75817 235.75 11.25V22.5C235.75 26.0841 236.891 29.5751 239.007 32.4677C241.123 35.3603 244.105 37.5043 247.521 38.5894C247.174 36.9998 246.999 35.3772 247 33.75C247 29.6625 248.091 25.8281 249.996 22.5225L245.674 18.2006C245.333 17.847 245.144 17.3734 245.148 16.8818C245.152 16.3901 245.35 15.9199 245.697 15.5722C246.045 15.2246 246.515 15.0274 247.007 15.0231C247.498 15.0188 247.972 15.2078 248.326 15.5494L252.173 19.3969C255.559 15.305 260.283 12.5438 265.51 11.6025C263.928 9.72754 261.954 8.22108 259.729 7.18855C257.503 6.15603 255.079 5.6224 252.625 5.62501H241.375ZM267.784 15.0769C265.267 15.3064 262.821 16.0437 260.596 17.244C258.371 18.4444 256.412 20.0831 254.838 22.0613C252.185 25.3791 250.743 29.5022 250.75 33.75C250.746 38.076 252.241 42.2696 254.982 45.6169L249.424 51.1744C249.245 51.3473 249.102 51.5542 249.004 51.783C248.906 52.0118 248.854 52.2578 248.852 52.5068C248.85 52.7557 248.897 53.0026 248.992 53.233C249.086 53.4635 249.225 53.6728 249.401 53.8489C249.577 54.0249 249.787 54.1642 250.017 54.2584C250.247 54.3527 250.494 54.4001 250.743 54.398C250.992 54.3958 251.238 54.3441 251.467 54.2458C251.696 54.1476 251.903 54.0047 252.076 53.8256L257.633 48.2681C260.979 51.011 265.174 52.5069 269.5 52.5C279.856 52.5 288.25 44.1056 288.25 33.75V20.625C288.25 19.1332 287.657 17.7024 286.602 16.6475C285.548 15.5926 284.117 15 282.625 15H269.5C268.923 15 268.349 15.0263 267.784 15.0769ZM272.701 30.5494C273.052 30.901 273.25 31.3778 273.25 31.875C273.25 32.3722 273.052 32.849 272.701 33.2006L260.301 45.6C259.311 44.8299 258.42 43.9393 257.65 42.9488L270.049 30.5494C270.401 30.1979 270.878 30.0004 271.375 30.0004C271.872 30.0004 272.349 30.1979 272.701 30.5494Z" fill="#A4D792"/>
<path d="M27.72 43.02C26.56 43.1 25.44 43.16 24.36 43.2C23.28 43.24 22.2 43.28 21.12 43.32C19.84 43.36 18.62 43.04 17.46 42.36C16.02 41.44 15.42 40.18 15.66 38.58C15.9 37.14 16.7 36.18 18.06 35.7C18.82 35.38 19.6 35.12 20.4 34.92C21.2 34.68 22 34.44 22.8 34.2C24.48 33.76 26.16 33.52 27.84 33.48C29.52 33.4 31.2 33.46 32.88 33.66C34.8 33.86 36.2 34.56 37.08 35.76C38 36.92 38.42 38.2 38.34 39.6C38.18 42.24 37.72 44.8 36.96 47.28C36.24 49.72 35.12 52.04 33.6 54.24C32.52 55.76 31.26 57.04 29.82 58.08C28.38 59.08 26.82 59.82 25.14 60.3C23.5 60.78 21.78 60.98 19.98 60.9C18.18 60.86 16.4 60.5 14.64 59.82C12.6 59.02 10.76 57.94 9.12 56.58C7.48 55.22 6.1 53.68 4.98 51.96C3.86 50.2 3.04 48.3 2.52 46.26C2 44.22 1.82 42.08 1.98 39.84C2.26 35.92 3.18 32.34 4.74 29.1C6.34 25.82 8.58 22.86 11.46 20.22C13.14 18.66 14.96 17.44 16.92 16.56C18.88 15.64 21.02 15.08 23.34 14.88C25.02 14.76 26.6 14.92 28.08 15.36C29.56 15.76 30.88 16.38 32.04 17.22C33.2 18.02 34.18 19 34.98 20.16C35.78 21.28 36.34 22.48 36.66 23.76C37.02 24.92 37.14 26.06 37.02 27.18C36.9 28.3 36.46 29.34 35.7 30.3C35.42 30.62 35.1 30.94 34.74 31.26C34.42 31.58 34.08 31.82 33.72 31.98C32.76 32.5 31.84 32.56 30.96 32.16C30.12 31.72 29.54 31 29.22 30C29.14 29.72 29.08 29.46 29.04 29.22C29.04 28.98 29 28.74 28.92 28.5C28.72 27.82 28.44 27.2 28.08 26.64C27.48 25.72 26.8 25.14 26.04 24.9C25.32 24.62 24.44 24.7 23.4 25.14C22.4 25.46 21.5 25.92 20.7 26.52C19.94 27.12 19.22 27.8 18.54 28.56C15.46 32.32 13.86 36.6 13.74 41.4C13.62 43.28 13.92 44.94 14.64 46.38C15.4 47.78 16.66 48.94 18.42 49.86C20.62 51.06 22.62 50.76 24.42 48.96C25.22 48.16 25.86 47.26 26.34 46.26C26.86 45.26 27.32 44.18 27.72 43.02ZM41.108 44.28C41.148 42.36 41.328 40.48 41.648 38.64C42.008 36.8 42.528 34.98 43.208 33.18C43.408 32.7 43.568 32.22 43.688 31.74C43.848 31.26 44.008 30.8 44.168 30.36C44.928 28.28 45.968 26.54 47.288 25.14C48.648 23.7 50.408 22.68 52.568 22.08C54.648 21.52 56.628 21.56 58.508 22.2C60.388 22.84 61.968 24.04 63.248 25.8C64.128 26.96 64.808 28.2 65.288 29.52C65.768 30.8 66.128 32.14 66.368 33.54C67.048 37.54 66.928 41.36 66.008 45C65.128 48.64 63.488 52.1 61.088 55.38C60.288 56.5 59.348 57.48 58.268 58.32C57.188 59.16 55.948 59.78 54.548 60.18C50.668 61.22 47.448 60.14 44.888 56.94C43.728 55.62 42.888 54.18 42.368 52.62C41.888 51.02 41.548 49.36 41.348 47.64C41.268 47.08 41.228 46.52 41.228 45.96C41.228 45.4 41.188 44.84 41.108 44.28ZM57.188 48C57.868 46.24 58.408 44.32 58.808 42.24C59.248 40.12 59.488 38.14 59.528 36.3C59.568 34.42 59.408 32.82 59.048 31.5C58.688 30.18 58.088 29.46 57.248 29.34C56.408 29.38 55.608 30.06 54.848 31.38C54.128 32.7 53.468 34.32 52.868 36.24C52.308 38.12 51.868 40.12 51.548 42.24C51.228 44.32 51.108 46.16 51.188 47.76C51.228 49.56 51.448 50.82 51.848 51.54C52.288 52.26 52.808 52.58 53.408 52.5C54.008 52.38 54.648 51.92 55.328 51.12C56.008 50.32 56.628 49.28 57.188 48ZM95.9817 43.02C94.8217 43.1 93.7017 43.16 92.6217 43.2C91.5417 43.24 90.4617 43.28 89.3817 43.32C88.1017 43.36 86.8817 43.04 85.7217 42.36C84.2817 41.44 83.6817 40.18 83.9217 38.58C84.1617 37.14 84.9617 36.18 86.3217 35.7C87.0817 35.38 87.8617 35.12 88.6617 34.92C89.4617 34.68 90.2617 34.44 91.0617 34.2C92.7417 33.76 94.4217 33.52 96.1017 33.48C97.7817 33.4 99.4617 33.46 101.142 33.66C103.062 33.86 104.462 34.56 105.342 35.76C106.262 36.92 106.682 38.2 106.602 39.6C106.442 42.24 105.982 44.8 105.222 47.28C104.502 49.72 103.382 52.04 101.862 54.24C100.782 55.76 99.5217 57.04 98.0817 58.08C96.6417 59.08 95.0817 59.82 93.4017 60.3C91.7617 60.78 90.0417 60.98 88.2417 60.9C86.4417 60.86 84.6617 60.5 82.9017 59.82C80.8617 59.02 79.0217 57.94 77.3817 56.58C75.7417 55.22 74.3617 53.68 73.2417 51.96C72.1217 50.2 71.3017 48.3 70.7817 46.26C70.2617 44.22 70.0817 42.08 70.2417 39.84C70.5217 35.92 71.4417 32.34 73.0017 29.1C74.6017 25.82 76.8417 22.86 79.7217 20.22C81.4017 18.66 83.2217 17.44 85.1817 16.56C87.1417 15.64 89.2817 15.08 91.6017 14.88C93.2817 14.76 94.8617 14.92 96.3417 15.36C97.8217 15.76 99.1417 16.38 100.302 17.22C101.462 18.02 102.442 19 103.242 20.16C104.042 21.28 104.602 22.48 104.922 23.76C105.282 24.92 105.402 26.06 105.282 27.18C105.162 28.3 104.722 29.34 103.962 30.3C103.682 30.62 103.362 30.94 103.002 31.26C102.682 31.58 102.342 31.82 101.982 31.98C101.022 32.5 100.102 32.56 99.2217 32.16C98.3817 31.72 97.8017 31 97.4817 30C97.4017 29.72 97.3417 29.46 97.3017 29.22C97.3017 28.98 97.2617 28.74 97.1817 28.5C96.9817 27.82 96.7017 27.2 96.3417 26.64C95.7417 25.72 95.0617 25.14 94.3017 24.9C93.5817 24.62 92.7017 24.7 91.6617 25.14C90.6617 25.46 89.7617 25.92 88.9617 26.52C88.2017 27.12 87.4817 27.8 86.8017 28.56C83.7217 32.32 82.1217 36.6 82.0017 41.4C81.8817 43.28 82.1817 44.94 82.9017 46.38C83.6617 47.78 84.9217 48.94 86.6817 49.86C88.8817 51.06 90.8817 50.76 92.6817 48.96C93.4817 48.16 94.1217 47.26 94.6017 46.26C95.1217 45.26 95.5817 44.18 95.9817 43.02ZM116.93 25.02C118.81 23.58 120.81 22.68 122.93 22.32C124.97 21.96 126.77 22.08 128.33 22.68C129.93 23.28 131.19 24.3 132.11 25.74C132.95 27.06 133.49 28.48 133.73 30C133.93 31.52 133.73 32.72 133.13 33.6C132.53 34.48 131.77 35.06 130.85 35.34C129.97 35.58 129.03 35.54 128.03 35.22C127.03 34.86 126.21 34.2 125.57 33.24C123.81 30.52 122.41 29.62 121.37 30.54C120.37 31.46 119.81 34 119.69 38.16C119.61 40.16 119.55 41.86 119.51 43.26C119.51 44.66 119.51 45.96 119.51 47.16C119.51 48.32 119.49 49.5 119.45 50.7C119.41 51.9 119.37 53.3 119.33 54.9C119.33 56.42 118.85 57.68 117.89 58.68C116.93 59.68 115.69 60.14 114.17 60.06C113.05 60.02 112.07 59.66 111.23 58.98C110.39 58.26 109.89 57.32 109.73 56.16C109.49 54.8 109.39 53.48 109.43 52.2C109.47 50.68 109.51 48.78 109.55 46.5C109.59 44.22 109.63 41.86 109.67 39.42C109.75 36.94 109.81 34.56 109.85 32.28C109.93 30 109.99 28.1 110.03 26.58C110.03 25.98 110.13 25.34 110.33 24.66C110.69 23.22 111.61 22.4 113.09 22.2C114.57 21.96 115.69 22.54 116.45 23.94C116.53 24.1 116.61 24.28 116.69 24.48C116.77 24.64 116.85 24.82 116.93 25.02ZM148.194 44.76C148.234 46.2 148.514 47.4 149.034 48.36C149.554 49.28 150.194 49.9 150.954 50.22C151.714 50.5 152.554 50.46 153.474 50.1C154.394 49.74 155.274 49 156.114 47.88C157.034 46.64 158.294 46.04 159.894 46.08C161.054 46.16 161.994 46.64 162.714 47.52C163.434 48.36 163.714 49.36 163.554 50.52C163.474 51.08 163.314 51.62 163.074 52.14C162.874 52.62 162.654 53.1 162.414 53.58C161.134 55.46 159.634 57 157.914 58.2C156.194 59.4 154.194 60.2 151.914 60.6C149.994 60.92 148.254 60.78 146.694 60.18C145.134 59.58 143.654 58.62 142.254 57.3C141.254 56.3 140.414 55.18 139.734 53.94C139.054 52.7 138.494 51.42 138.054 50.1C137.654 48.74 137.334 47.38 137.094 46.02C136.894 44.62 136.774 43.28 136.734 42C136.614 39.56 136.774 37.16 137.214 34.8C137.654 32.4 138.434 30.28 139.554 28.44C140.714 26.56 142.254 25.06 144.174 23.94C146.094 22.78 148.474 22.22 151.314 22.26C152.674 22.26 153.974 22.48 155.214 22.92C156.494 23.36 157.634 23.98 158.634 24.78C159.634 25.54 160.474 26.48 161.154 27.6C161.834 28.72 162.294 29.98 162.534 31.38C162.934 33.66 162.814 35.8 162.174 37.8C161.534 39.76 160.554 41.42 159.234 42.78C157.954 44.1 156.414 45 154.614 45.48C152.854 45.96 151.034 45.82 149.154 45.06C149.034 45.02 148.914 44.98 148.794 44.94C148.714 44.9 148.634 44.86 148.554 44.82C148.514 44.82 148.394 44.8 148.194 44.76ZM148.794 36.72C149.274 37.72 149.794 38.42 150.354 38.82C150.954 39.18 151.494 39.32 151.974 39.24C152.494 39.16 152.954 38.88 153.354 38.4C153.754 37.92 154.034 37.34 154.194 36.66C154.394 35.94 154.414 35.16 154.254 34.32C154.134 33.44 153.794 32.56 153.234 31.68C152.394 30.6 151.614 30.14 150.894 30.3C150.214 30.46 149.654 30.92 149.214 31.68C148.814 32.44 148.554 33.34 148.434 34.38C148.354 35.38 148.474 36.16 148.794 36.72ZM177.96 44.76C178 46.2 178.28 47.4 178.8 48.36C179.32 49.28 179.96 49.9 180.72 50.22C181.48 50.5 182.32 50.46 183.24 50.1C184.16 49.74 185.04 49 185.88 47.88C186.8 46.64 188.06 46.04 189.66 46.08C190.82 46.16 191.76 46.64 192.48 47.52C193.2 48.36 193.48 49.36 193.32 50.52C193.24 51.08 193.08 51.62 192.84 52.14C192.64 52.62 192.42 53.1 192.18 53.58C190.9 55.46 189.4 57 187.68 58.2C185.96 59.4 183.96 60.2 181.68 60.6C179.76 60.92 178.02 60.78 176.46 60.18C174.9 59.58 173.42 58.62 172.02 57.3C171.02 56.3 170.18 55.18 169.5 53.94C168.82 52.7 168.26 51.42 167.82 50.1C167.42 48.74 167.1 47.38 166.86 46.02C166.66 44.62 166.54 43.28 166.5 42C166.38 39.56 166.54 37.16 166.98 34.8C167.42 32.4 168.2 30.28 169.32 28.44C170.48 26.56 172.02 25.06 173.94 23.94C175.86 22.78 178.24 22.22 181.08 22.26C182.44 22.26 183.74 22.48 184.98 22.92C186.26 23.36 187.4 23.98 188.4 24.78C189.4 25.54 190.24 26.48 190.92 27.6C191.6 28.72 192.06 29.98 192.3 31.38C192.7 33.66 192.58 35.8 191.94 37.8C191.3 39.76 190.32 41.42 189 42.78C187.72 44.1 186.18 45 184.38 45.48C182.62 45.96 180.8 45.82 178.92 45.06C178.8 45.02 178.68 44.98 178.56 44.94C178.48 44.9 178.4 44.86 178.32 44.82C178.28 44.82 178.16 44.8 177.96 44.76ZM178.56 36.72C179.04 37.72 179.56 38.42 180.12 38.82C180.72 39.18 181.26 39.32 181.74 39.24C182.26 39.16 182.72 38.88 183.12 38.4C183.52 37.92 183.8 37.34 183.96 36.66C184.16 35.94 184.18 35.16 184.02 34.32C183.9 33.44 183.56 32.56 183 31.68C182.16 30.6 181.38 30.14 180.66 30.3C179.98 30.46 179.42 30.92 178.98 31.68C178.58 32.44 178.32 33.34 178.2 34.38C178.12 35.38 178.24 36.16 178.56 36.72ZM211.206 43.26C210.566 45.34 210.066 47.48 209.706 49.68C209.346 51.88 209.066 54.06 208.866 56.22C208.706 57.54 208.126 58.62 207.126 59.46C206.166 60.26 205.106 60.54 203.946 60.3C202.946 60.14 202.046 59.76 201.246 59.16C200.486 58.52 199.886 57.7 199.446 56.7C199.126 55.9 198.806 55.12 198.486 54.36C198.206 53.56 198.006 52.76 197.886 51.96C197.366 48.48 196.966 45.02 196.686 41.58C196.446 38.14 196.506 34.66 196.866 31.14C196.986 30.06 197.186 28.98 197.466 27.9C197.746 26.78 198.046 25.68 198.366 24.6C198.726 23.36 199.466 22.4 200.586 21.72C201.746 21.08 202.886 21.02 204.006 21.54C205.126 22.02 205.886 22.94 206.286 24.3C206.446 24.9 206.546 25.52 206.586 26.16C206.666 26.76 206.746 27.34 206.826 27.9C206.906 28.9 206.966 29.9 207.006 30.9C207.086 31.86 207.146 32.92 207.186 34.08C207.426 33.72 207.626 33.42 207.786 33.18C207.946 32.9 208.126 32.62 208.326 32.34C209.246 30.82 210.266 29.46 211.386 28.26C212.546 27.02 213.886 25.98 215.406 25.14C216.566 24.54 217.726 24.2 218.886 24.12C220.046 24 221.166 24.14 222.246 24.54C223.326 24.94 224.306 25.56 225.186 26.4C226.106 27.24 226.886 28.28 227.526 29.52C228.006 30.52 228.406 31.64 228.726 32.88C228.926 33.76 229.106 35.12 229.266 36.96C229.426 38.76 229.486 40.76 229.446 42.96C229.406 45.12 229.246 47.32 228.966 49.56C228.726 51.8 228.286 53.82 227.646 55.62C227.046 57.38 226.226 58.78 225.186 59.82C224.186 60.82 222.906 61.16 221.346 60.84C220.306 60.6 219.426 60.06 218.706 59.22C217.986 58.34 217.586 57.28 217.506 56.04C217.466 55.44 217.466 54.62 217.506 53.58C217.546 52.54 217.606 51.46 217.686 50.34C217.806 49.18 217.906 48.08 217.986 47.04C218.066 46 218.106 45.16 218.106 44.52C218.146 41.6 218.066 39.12 217.866 37.08C217.666 35 217.306 33.72 216.786 33.24C216.266 32.76 215.546 33.26 214.626 34.74C213.746 36.22 212.606 39.06 211.206 43.26Z" fill="white"/>
</svg>
