<svg width="19" height="19" viewBox="0 0 19 19" fill="none" xmlns="http://www.w3.org/2000/svg">
<path fill-rule="evenodd" clip-rule="evenodd" d="M18.4231 1.75666C18.5006 1.67918 18.562 1.5872 18.604 1.48597C18.6459 1.38473 18.6675 1.27623 18.6675 1.16666C18.6675 1.05709 18.6459 0.948588 18.604 0.847356C18.562 0.746123 18.5006 0.654141 18.4231 0.576661C18.3456 0.499181 18.2536 0.437721 18.1524 0.395789C18.0512 0.353857 17.9427 0.332275 17.8331 0.332275C17.7235 0.332275 17.615 0.353857 17.5138 0.395789C17.4125 0.437721 17.3206 0.499181 17.2431 0.576661L9.49975 8.32166L1.75642 0.576661C1.67894 0.499181 1.58696 0.437721 1.48572 0.395789C1.38449 0.353857 1.27599 0.332275 1.16642 0.332275C1.05684 0.332275 0.948344 0.353857 0.847112 0.395789C0.745879 0.437721 0.653897 0.499181 0.576417 0.576661C0.498937 0.654141 0.437477 0.746123 0.395545 0.847356C0.353613 0.948588 0.332031 1.05709 0.332031 1.16666C0.332031 1.27623 0.353613 1.38473 0.395545 1.48597C0.437477 1.5872 0.498937 1.67918 0.576417 1.75666L8.32142 9.49999L0.576417 17.2433C0.419939 17.3998 0.332031 17.612 0.332031 17.8333C0.332031 18.0546 0.419939 18.2668 0.576417 18.4233C0.732895 18.5798 0.945124 18.6677 1.16642 18.6677C1.38771 18.6677 1.59994 18.5798 1.75642 18.4233L9.49975 10.6783L17.2431 18.4233C17.3996 18.5798 17.6118 18.6677 17.8331 18.6677C18.0544 18.6677 18.2666 18.5798 18.4231 18.4233C18.5796 18.2668 18.6675 18.0546 18.6675 17.8333C18.6675 17.612 18.5796 17.3998 18.4231 17.2433L10.6781 9.49999L18.4231 1.75666Z" fill="white"/>
</svg>
